<?xml version="1.0" encoding="utf-8"?>
<!-- Generator: Adobe Illustrator 19.1.0, SVG Export Plug-In . SVG Version: 6.00 Build 0)  -->
<svg version="1.1" xmlns="http://www.w3.org/2000/svg" xmlns:xlink="http://www.w3.org/1999/xlink" x="0px" y="0px"
	 viewBox="0 0 411 411" enable-background="new 0 0 411 411" xml:space="preserve">
<g id="Layer_3">
</g>
<g id="head">
</g>
<g id="arrow">
	<path fill="#FFFFFF" d="M411,411H0V0h411V411z M97.6,63c0,0-26,24.5-28,78c0,0-2.7,41,18.7,76.3c0,0,15,23.3,34.3,42.3
		c0,0,18.7,11.7,12,41.3c0,0-0.7,13.7-11,51.7c0,0-1.5,6.2-3.2,11c0,0,0.2,0.8,0.8,1.3c0,0,21.5,10.7,53.5,13.8
		c0,0,11.5,1.5,26.5,2.3c15,0.8,26-2.2,42.8-5.8c0,0,2-0.5,3.3-1s2-0.7,2.2-2.7c0,0,2.7-23.7,7.3-45.5c0,0,1-13,15.3-14.5
		c0,0,8.2-2.2,18.3-1c0,0,14.5,1,27.2-2.7c12.7-3.7,12.8-7.3,12.8-7.3s3.2-1.3,0-11.5c0,0-7.8-13.2-0.2-19c7.7-5.8,8.8-9.5,8.8-9.5
		s2.2-2.2-1.2-8.2c-3.3-6-5-7.3-5-7.3s-2.5-1.3,0.3-3c0,0,7.5-2.7,9.2-9.7c1.7-7-4.8-6-6.5-15.8c-1.7-9.8-2.5-7.8,2.5-8.5
		c5-0.7,6.5-0.5,17-4.5s-15.5-33.5-15.5-33.5s-19.5-21-9.8-44.5c0,0,5.8-20.5-12.3-52.2S259.1,29,259.1,29S161.6-4.7,97.6,63z
		 M272.6,141.7c0,43.6-35.4,79-79,79s-79-35.4-79-79s35.4-79,79-79S272.6,98,272.6,141.7z M169.6,113.8V171c0,0-0.5,11.2,8.5,5
		l52.5-30.2c0,0,6.5-3.3,0-8.3l-51.8-29.2C178.8,108.2,169.6,101,169.6,113.8z"/>
</g>
</svg>
